<?xml version="1.0"?><svg version="1.2" baseProfile="tiny-ps" viewBox="0 0 500 500" xmlns="http://www.w3.org/2000/svg" xmlns:xlink="http://www.w3.org/1999/xlink"><title>eks-news-bimi</title><g><g fill="#fff" transform="matrix(.1 0 0 -.1 0 500)"><path d="M0 2500V0h4980v5000H0V2500z"/></g><g fill="#edf0e6" transform="matrix(.1 0 0 -.1 0 500)"><path d="M1100 3444c-63-31-164-80-225-109-60-29-190-91-288-138l-177-86-10-27c-6-15-24-88-41-163-16-75-39-174-50-221s-26-112-34-145-28-120-45-193l-30-133 9-17c5-10 129-169 276-353l266-334 27-12 27-12 417-1h417l24 9 24 9 148 186 149 186h2806v700H2162l-6 23c-5 19-71 302-98 427-6 25-15 51-22 59-10 13-179 98-632 316-83 40-159 75-170 79l-19 6-115-56zm723-713l27-11v-82l-17 7c-10 4-52 10-94 12l-77 5-21-21-21-21v-18c0-28 26-47 119-86 46-20 95-45 108-58l23-22 11-38 10-38-7-37-7-36-37-37-37-37-46-11c-56-15-116-14-182 1l-50 12-3 44-3 44 18-8c10-4 54-9 99-12l80-6 23 12 22 12 10 26 10 26-15 23-16 23-77 28-77 28-37 35-37 35-7 46-7 47 17 36 17 36 27 19c15 11 42 24 61 30l35 10 65-4c36-2 77-8 93-14zm-918-36v-40l-112-3-113-3v-128l93-3 92-3 3-37 3-38H680v-149l113-3 112-3v-80H575l-3 255c-1 140 0 260 3 268l5 12 162-2 163-3v-40zm213 32l11-13 3-103 3-103 94 110c51 61 100 113 108 116s32 6 53 6h39l5-9 6-9-100-112c-55-61-100-116-100-121 0-6 49-69 110-141l110-130-6-9-5-9h-95l-16 13c-9 6-60 65-112 131l-96 118v-240l-14-11-15-12-38 3-38 3-3 255c-1 140 0 260 3 267l4 13h79l10-13z"/></g><g fill="#f3e502" transform="matrix(.1 0 0 -.1 0 500)"><path d="M1080 3432c-63-32-236-116-384-187-148-72-275-135-281-142-7-6-20-44-29-85-94-394-176-760-176-784v-23l177-223c97-123 210-266 251-318 42-52 89-110 106-127l30-33h895l26 28c14 15 85 102 158 194l132 167 1403 1h1402v680H2161l-10 38c-9 37-33 141-72 315-11 50-26 110-32 132l-12 40-45 23c-65 33-526 256-649 313l-104 49-21-1c-12 0-73-26-136-57zm726-693l44-11v-90l-17 6c-9 4-42 9-74 13l-57 6-26-7-26-6-16-25-16-25 15-23 15-23 86-34 86-33 24-22 24-23 13-40 12-40-8-38-7-38-37-37-37-37-44-12-45-12-70 5c-38 2-82 10-97 16l-28 11v82l23-6c12-4 56-9 97-12l75-5 25 13 25 13 3 38 3 38-58 25c-32 14-82 37-111 51l-52 25-20 38-20 39v31c0 68 39 121 107 146l38 13 53 1c29 0 73-5 98-11zm-891-20l7-20-6-25-6-24H680v-130h191l-3-42-3-43-92-3-93-3v-139h229l6-21 7-20-6-25-6-24H572l-6 16c-8 20-8 488 0 508l6 16h337l6-21zm215-95l5-112 98 114 98 114h109v-11c0-6-45-61-100-122-55-62-100-115-100-118 0-4 50-65 110-137 61-72 110-135 110-141v-11h-119l-103 126-103 125-5-123-5-123-49-3-49-3-8 13-9 13v242c0 133 3 249 6 258l7 16 51-3 51-3 5-111z"/></g><g fill="#cec50e" transform="matrix(.1 0 0 -.1 0 500)"><path d="M1080 3432c-63-32-236-116-384-187-148-72-275-135-281-142-7-6-20-44-29-85-94-394-176-760-176-784v-23l177-223c97-123 210-266 251-318 42-52 89-110 106-127l30-33h895l17 17c9 10 80 96 158 193 77 96 150 186 162 200s70 86 129 160l107 135-5 30c-4 29-33 158-61 275-8 30-23 96-35 145-12 50-30 128-41 175s-27 119-36 160-21 83-26 93l-9 18-92 43c-51 24-177 85-282 136-104 51-241 117-304 146l-113 54-22-1c-11 0-73-26-136-57zm726-693l44-11v-90l-17 6c-9 4-42 9-74 13l-57 6-26-7-26-6-16-25-16-25 15-23 15-23 86-34 86-33 24-22 24-23 13-40 12-40-8-38-7-38-37-37-37-37-44-12-45-12-70 5c-38 2-82 10-97 16l-28 11v82l23-6c12-4 56-9 97-12l75-5 25 13 25 13 3 38 3 38-58 25c-32 14-82 37-111 51l-52 25-20 38-20 39v31c0 68 39 121 107 146l38 13 53 1c29 0 73-5 98-11zm-891-20l7-20-6-25-6-24H680v-130h191l-3-42-3-43-92-3-93-3v-139h229l6-21 7-20-6-25-6-24H572l-6 16c-8 20-8 488 0 508l6 16h337l6-21zm215-95l5-112 98 114 98 114h109v-11c0-6-45-61-100-122-55-62-100-115-100-118 0-4 50-65 110-137 61-72 110-135 110-141v-11h-119l-103 126-103 125-5-123-5-123-49-3-49-3-8 13-9 13v242c0 133 3 249 6 258l7 16 51-3 51-3 5-111zm2885-194l-31-9-29-31-28-30v-85l12-22 12-23 84-40 85-41v-18c0-10-7-24-15-31l-14-12-33-1c-18 0-55 3-81 7l-48 7 3-37 3-38 25-7c14-4 54-7 90-8l65-1 35 18 35 19 17 34c10 19 18 46 18 60v26l-22 33-23 33-75 31-75 32v49l28 9 27 10 50-10c28-6 52-8 55-6 3 3 5 20 5 38v32l-22 5c-13 3-45 8-73 11l-50 5-30-9zm-1380-12c-3-8-4-99-3-203l3-190h80l5 123 5 124 73-126 74-126h98l-2 203-3 202h-70l-3-134-3-135-77 135-78 134-47 3-47 3-5-13zm419-1c-2-7-3-98-2-202l3-190h270v60l-87 3-88 3v99h140v70h-140v90h169l6 20 6 20-6 20-6 20h-260l-5-13zm307-9c0-13 24-104 52-203l52-180 52-3 51-3 17 78c10 43 23 103 30 133l12 55 17-80c10-44 23-102 30-130l12-50 52-3 51-3 15 53c72 252 95 341 90 349l-5 9h-78l-9-17c-5-10-20-71-33-135-13-65-26-118-30-118-3 0-16 51-29 113-13 61-27 120-32 130l-9 17h-77l-9-12c-5-7-20-65-33-128s-26-118-29-122l-7-8-22 116c-13 63-27 126-32 140l-10 24h-90l1-22z"/></g><g fill="#8fafef" transform="matrix(.1 0 0 -.1 0 500)"><path d="M1080 3432c-63-32-236-116-384-187-148-72-275-135-281-142-7-6-20-44-29-85-94-394-176-760-176-784v-23l177-223c97-123 210-266 251-318 42-52 89-110 106-127l30-33h891l12 8c18 12 551 684 556 701 3 14-62 320-133 621-11 47-27 119-36 160s-21 83-26 93l-9 18-92 43c-51 24-177 85-282 136-104 51-241 117-304 146l-113 54-22-1c-11 0-73-26-136-57zm726-693l44-11v-90l-17 6c-9 4-42 9-74 13l-57 6-26-7-26-6-16-25-16-25 15-23 15-23 86-34 86-33 24-22 24-23 13-40 12-40-8-38-7-38-37-37-37-37-44-12-45-12-70 5c-38 2-82 10-97 16l-28 11v82l23-6c12-4 56-9 97-12l75-5 25 13 25 13 3 38 3 38-58 25c-32 14-82 37-111 51l-52 25-20 38-20 39v31c0 68 39 121 107 146l38 13 53 1c29 0 73-5 98-11zm-891-20l7-20-6-25-6-24H680v-130h191l-3-42-3-43-92-3-93-3v-139h229l6-21 7-20-6-25-6-24H572l-6 16c-8 20-8 488 0 508l6 16h337l6-21zm215-95l5-112 98 114 98 114h109v-11c0-6-45-61-100-122-55-62-100-115-100-118 0-4 50-65 110-137 61-72 110-135 110-141v-11h-119l-103 126-103 125-5-123-5-123-49-3-49-3-8 13-9 13v242c0 133 3 249 6 258l7 16 51-3 51-3 5-111zm2910-194c-45-8-75-25-94-52l-16-22v-84l25-30 25-30 57-22c32-13 64-28 71-33l12-9v-48l-27-11-28-10-45 6c-25 4-55 9-67 12l-23 5v-70l31-11 32-11h119l39 22 38 21 17 35 16 34-7 35-6 35-25 23c-14 13-50 33-82 46-70 27-82 36-82 60v18l21 12 22 11 63-7 64-7v62l-22 9c-37 13-91 18-128 11zm-1399-14l-11-14 2-188 3-189h80l3 129 3 130 76-132 77-132h96v401l-15 5c-8 4-26 3-40 0l-25-6v-265l-77 130c-42 72-81 133-87 137s-25 8-42 8h-32l-11-14zm420 1l-11-15 2-188 3-189 133-3 132-3v71h-170v100h140v70h-140v89l83 3 82 3v70l-121 3-121 3-12-14zm303 0l-5-13 53-190 54-189 43-3 44-3 9 9c6 6 22 68 37 138l27 128 30-135 31-134 51-3 51-3 11 43c7 24 31 113 55 198s41 158 39 162c-3 4-20 8-39 8h-34l-13-14-14-13-24-127c-13-69-26-126-29-126-4 0-19 57-34 127l-28 127-12 8c-6 4-24 8-39 8h-27l-13-14-14-13-23-117c-13-64-27-119-31-121l-7-4-27 131-26 132-12 8c-7 4-28 8-46 8h-33l-5-13z"/></g><g fill="#a39c0a" transform="matrix(.1 0 0 -.1 0 500)"><path d="M1134 3452c-43-21-110-54-149-72-38-18-183-88-321-155l-251-122-7-19c-4-10-22-86-41-169-19-82-55-240-80-350s-52-231-61-269l-14-69 17-27c10-16 133-172 273-348l255-320 23-11 23-11h858l24 23c14 12 89 103 168 202 155 194 169 211 184 229 42 46 175 217 187 240l15 30-14 60c-8 34-17 70-19 81-3 11-7 31-10 45s-7 33-10 42c-3 10-7 28-10 40-5 27-8 42-29 128-9 36-36 152-60 259l-44 193-13 15c-7 9-44 30-83 48-38 18-160 77-270 130-273 133-446 215-454 215-4 0-43-17-87-38zm686-716l35-11 3-42 3-43h-19c-10 0-43 5-73 11l-54 11-34-9-34-9-10-15-10-16 7-26 6-26 82-31c97-38 133-61 153-100l15-29v-98l-23-34-22-34-47-24-48-23h-78l-77 1-40 13-40 13-3 44-3 43 68-8c37-5 87-8 111-8l43 2 19 17 20 18v44l-17 15c-10 8-50 27-90 42-82 31-117 55-138 96l-15 29v92l15 29 15 28 34 21c19 12 54 26 78 30l43 8 45-5c25-3 61-10 80-16zm-900-41v-45H680v-130h189l6-21 7-20-6-25-6-24H680v-140h241l-3-42-3-43H565l-3 255c-1 140 0 260 3 267l4 13h351v-45zm212-66l3-111 94 111 94 111h116l5-8 5-9-105-116-105-117 115-137c63-75 112-141 110-145l-5-8h-124l-102 126-103 126v-253l-57 3-58 3-3 255c-1 140 0 260 3 267l4 13h110l3-111zm2908-199c-45-8-75-25-94-52l-16-22v-84l25-30 25-30 57-22c32-13 64-28 71-33l12-9v-48l-27-11-28-10-45 6c-25 4-55 9-67 12l-23 5v-70l31-11 32-11h119l39 22 38 21 17 35 16 34-7 35-6 35-25 23c-14 13-50 33-82 46-70 27-82 36-82 60v18l21 12 22 11 63-7 64-7v62l-22 9c-37 13-91 18-128 11zm-1399-14l-11-14 2-188 3-189h80l3 129 3 130 76-132 77-132h96v401l-15 5c-8 4-26 3-40 0l-25-6v-265l-77 130c-42 72-81 133-87 137s-25 8-42 8h-32l-11-14zm420 1l-11-15 2-188 3-189 133-3 132-3v71h-170v100h140v70h-140v89l83 3 82 3v70l-121 3-121 3-12-14zm303 0l-5-13 53-190 54-189 43-3 44-3 9 9c6 6 22 68 37 138l27 128 30-135 31-134 51-3 51-3 11 43c7 24 31 113 55 198s41 158 39 162c-3 4-20 8-39 8h-34l-13-14-14-13-24-127c-13-69-26-126-29-126-4 0-19 57-34 127l-28 127-12 8c-6 4-24 8-39 8h-27l-13-14-14-13-23-117c-13-64-27-119-31-121l-7-4-27 131-26 132-12 8c-7 4-28 8-46 8h-33l-5-13z"/></g><g fill="#7f7800" transform="matrix(.1 0 0 -.1 0 500)"><path d="M1134 3452c-43-21-110-54-149-72-38-18-183-88-321-155l-251-122-7-19c-4-10-22-86-41-169-19-82-55-240-80-350s-52-231-61-269l-14-69 17-27c10-16 133-172 273-348l255-320 23-11 23-11h858l25 23c13 12 142 169 285 350l261 327v28c0 15-5 44-11 65s-16 66-24 100c-12 60-96 424-136 596-11 47-25 91-32 99-6 8-43 29-82 47-38 18-160 77-270 130-273 133-446 215-454 215-4 0-43-17-87-38zm686-716l35-11 3-42 3-43h-19c-10 0-43 5-73 11l-54 11-34-9-34-9-10-15-10-16 7-26 6-26 82-31c97-38 133-61 153-100l15-29v-98l-23-34-22-34-47-24-48-23h-78l-77 1-40 13-40 13-3 44-3 43 68-8c37-5 87-8 111-8l43 2 19 17 20 18v44l-17 15c-10 8-50 27-90 42-82 31-117 55-138 96l-15 29v92l15 29 15 28 34 21c19 12 54 26 78 30l43 8 45-5c25-3 61-10 80-16zm-900-41v-45H680v-130h189l6-21 7-20-6-25-6-24H680v-140h241l-3-42-3-43H565l-3 255c-1 140 0 260 3 267l4 13h351v-45zm212-66l3-111 94 111 94 111h116l5-8 5-9-105-116-105-117 115-137c63-75 112-141 110-145l-5-8h-124l-102 126-103 126v-253l-57 3-58 3-3 255c-1 140 0 260 3 267l4 13h110l3-111zm2851-219c-40-24-53-48-53-99v-39l25-30 24-29 48-18c26-9 58-24 71-31l22-14v-49l-22-12-21-11-51 6c-28 3-60 7-71 8l-20 3-3-26-3-26 16-13 16-13 72-4 72-4 34 18c19 10 43 30 54 44l19 27v43l-1 42-28 29-28 28-59 23-59 22-11 18-11 17 11 18 12 17 76-2 76-2v59l-26 10c-14 6-53 10-87 10h-62l-32-20zm-1343-189v-201h69l3 137 3 137 80-134 80-135 48-3 47-3v401h-79l-3-132-3-131-75 129-75 129-47 3-48 3v-200zm420-1v-200h260v70h-180v99l73 3 72 3 3 33 3 32h-151v89l88 3 87 3 3 33 3 32h-261v-200zm300 193c0-5 24-93 54-198l53-190h98l17 70c9 39 22 99 30 135l14 65 23-100c12-55 27-117 32-137l10-38h89l10 23c14 32 100 344 100 362v15h-88l-5-22c-3-13-15-72-27-133-12-60-25-113-29-117l-7-8-28 135-29 135h-95l-15-67c-9-38-21-95-28-128s-15-63-19-68l-6-7-24 117c-13 65-27 128-31 141l-9 22h-90v-7z"/></g><g fill="#336de5" transform="matrix(.1 0 0 -.1 0 500)"><path d="M1134 3452c-43-21-110-54-149-72-38-18-183-88-321-155l-251-122-7-19c-4-10-22-86-41-169-19-82-55-240-80-350s-52-231-61-269l-14-69 17-27c10-16 133-172 273-348l255-320 23-11 23-11h858l25 23c13 12 142 169 285 350l261 327v28c0 15-5 44-11 65s-16 66-24 100c-12 60-96 424-136 596-11 47-25 91-32 99-6 8-43 29-82 47-38 18-160 77-270 130-273 133-446 215-454 215-4 0-43-17-87-38zm686-716l35-11 3-42 3-43h-19c-10 0-43 5-73 11l-54 11-34-9-34-9-10-15-10-16 7-26 6-26 82-31c97-38 133-61 153-100l15-29v-98l-23-34-22-34-47-24-48-23h-78l-77 1-40 13-40 13-3 44-3 43 68-8c37-5 87-8 111-8l43 2 19 17 20 18v44l-17 15c-10 8-50 27-90 42-82 31-117 55-138 96l-15 29v92l15 29 15 28 34 21c19 12 54 26 78 30l43 8 45-5c25-3 61-10 80-16zm-900-41v-45H680v-130h189l6-21 7-20-6-25-6-24H680v-140h241l-3-42-3-43H565l-3 255c-1 140 0 260 3 267l4 13h351v-45zm212-66l3-111 94 111 94 111h116l5-8 5-9-105-116-105-117 115-137c63-75 112-141 110-145l-5-8h-124l-102 126-103 126v-253l-57 3-58 3-3 255c-1 140 0 260 3 267l4 13h110l3-111zm2860-216l-33-16-15-28-14-28v-68l19-25 20-25 75-32 75-33 5-15 6-14-10-20-11-19-24-6-25-6-58 7c-71 9-67 10-67-22v-28l35-12c45-15 103-16 152-1l39 12 25 29 24 29v85l-19 25-20 25-75 33-76 33v57l26 6 26 7 60-7 59-6-3 32-3 32-25 7c-14 4-50 7-80 8l-55 1-33-17zm-1352-192v-201h69l3 138 3 137 80-135 81-135 47-3 47-3v402l-37-3-38-3-3-134-3-135-77 135-78 134-47 3-47 3v-200zm420-1v-200h261l-3 33-3 32-87 3-88 3v98l73 3 72 3v60l-73 3-73 3 3 47 3 47 88 3 87 3v59h-260v-200zm304 183c3-10 21-76 41-148 20-71 43-154 51-183l15-53 47 3 47 3 30 140 30 139 12-44c6-25 21-89 33-143l22-98 46 3 47 3 52 180c28 99 52 188 52 198l1 17h-87l-28-137c-15-76-30-142-33-147s-19 53-36 130l-31 139-46 3-46 3-28-133c-15-73-31-136-34-140l-7-8-29 143-30 142-48 3-49 3 6-18z"/></g><g fill="#484300" transform="matrix(.1 0 0 -.1 0 500)"><path d="M3992 2413l-33-16-15-28-14-28v-68l19-25 20-25 75-32 75-33 5-15 6-14-10-20-11-19-24-6-25-6-58 7c-71 9-67 10-67-22v-28l35-12c45-15 103-16 152-1l39 12 25 29 24 29v85l-19 25-20 25-75 33-76 33v57l26 6 26 7 60-7 59-6-3 32-3 32-25 7c-14 4-50 7-80 8l-55 1-33-17zm-1352-192v-201h69l3 138 3 137 80-135 81-135 47-3 47-3v402l-37-3-38-3-3-134-3-135-77 135-78 134-47 3-47 3v-200zm420-1v-200h261l-3 33-3 32-87 3-88 3v98l73 3 72 3v60l-73 3-73 3 3 47 3 47 88 3 87 3v59h-260v-200zm304 183c3-10 21-76 41-148 20-71 43-154 51-183l15-53 47 3 47 3 30 140 30 139 12-44c6-25 21-89 33-143l22-98 46 3 47 3 52 180c28 99 52 188 52 198l1 17h-87l-28-137c-15-76-30-142-33-147s-19 53-36 130l-31 139-46 3-46 3-28-133c-15-73-31-136-34-140l-7-8-29 143-30 142-48 3-49 3 6-18z"/></g><g fill="#010100" transform="matrix(.1 0 0 -.1 0 500)"><path d="M4010 2419c-14-5-35-20-47-31l-23-21-6-32-6-32 15-35 15-36 58-26c33-15 70-32 84-39l25-13 3-18 4-17-19-21-18-20-77 5-78 5v-57l38-8c20-4 60-7 88-7l50 1 32 17 32 16 15 30 15 29v68l-20 26-20 25-71 28-70 28-10 18-10 18 10 19 10 18 28 6 28 5 45-8c25-4 48-6 52-4 13 8 9 41-7 54l-15 12-62 4-63 4-25-11zm-1368-196l3-198h60l5 139 5 140 81-140 82-139h87l3 198 2 197h-70v-284l-9 10c-5 5-44 69-86 142l-77 132h-88l2-197zm420 0l3-198h250l3 27 3 27-88 3-88 3-3 57-3 57 73 3 73 3v50l-72 3-73 3v99h180v60h-260l2-197zm324 110c13-49 36-131 50-183 15-52 30-103 35-112l10-18h67l10 13c5 6 22 68 36 137 15 68 29 126 31 128 4 4 10-19 47-173l23-100h88l48 170c27 94 51 183 55 198l6 28-44-3-43-3-28-135c-15-74-30-142-33-150l-7-15-31 145-32 145h-89l-30-137c-16-75-33-139-36-142-3-4-16 44-28 106s-27 130-32 151l-10 37h-88l25-87z"/></g></g></svg>