<?xml version="1.0"?><svg version="1.2" baseProfile="tiny-ps" viewBox="0 0 500 500" xmlns="http://www.w3.org/2000/svg" xmlns:xlink="http://www.w3.org/1999/xlink"><title>eks</title><g><g fill="#1a89ff" transform="matrix(.1 0 0 -.1 0 500)"><path d="M1760 4433c-300-173-698-403-885-510-187-108-348-203-357-211l-18-15V1414l13-16c6-8 248-152 537-318 289-167 727-420 975-563 247-143 457-262 466-264l18-5 168 97c92 54 400 231 683 395 283 163 607 350 720 415s213 125 223 133l17 15v46l-27 19c-16 11-205 121-421 246l-394 226h-37l-471-271-470-271-53 30c-440 250-1015 586-1024 599l-13 17v1214l18 20c16 19 116 78 697 412 127 73 233 137 237 144l8 11v984l-19 11c-11 5-26 10-33 9-7 0-258-142-558-316zm887 305l-17-13 2-499 3-498 463-267c254-147 468-273 475-280l12-12 5-552 5-552 420-242c231-134 427-243 436-243s23 8 32 18l17 19v2080l-17 15c-10 8-216 129-458 268s-642 370-888 512-453 258-460 258-21-6-30-12zm-572-1540c-3-7-4-299-3-648l3-635 92-3 93-3 2 321 3 321 285-320 285-321h237l-34 38c-18 21-144 162-279 313s-259 290-276 309l-31 36 291 299 291 300-119 3-120 3-267-273-267-273-1 273v272h-181l-4-12z"/></g><g fill="#2479ff" transform="matrix(.1 0 0 -.1 0 500)"><path d="M2647 4738l-17-13 2-499 3-498 463-267c254-147 468-273 475-280l12-12 5-552 5-552 420-242c231-134 427-243 436-243s23 8 32 18l17 19v2080l-17 15c-10 8-216 129-458 268s-642 370-888 512-453 258-460 258-21-6-30-12zm-572-1540c-3-7-4-299-3-648l3-635 92-3 93-3 2 321 3 321 285-320 285-321h237l-34 38c-18 21-144 162-279 313s-259 290-276 309l-31 36 291 299 291 300-119 3-120 3-267-273-267-273-1 273v272h-181l-4-12zM1000 1845c-217-124-417-237-445-253l-50-28-3-64c-2-35-1-74 2-86l6-22 36-21c19-12 41-21 49-21 7 0 15-4 17-9s201-124 443-264c242-139 663-383 936-540 273-158 501-287 508-287s88 43 180 96c91 53 398 230 681 394 283 163 607 350 720 415s213 125 223 133l17 15v46l-27 19c-16 11-205 121-421 246l-394 226h-37l-470-271-471-271-43 24c-23 13-254 147-514 296-259 150-476 272-481 272-6 0-20 12-31 26l-21 27v127h-7c-5-1-186-102-403-225z"/></g><g fill="#3e5cdb" transform="matrix(.1 0 0 -.1 0 500)"><path d="M2647 4738l-17-13 2-499 3-498 463-267c254-147 468-273 475-280l12-12 5-552 5-552 420-242c231-134 427-243 436-243s23 8 32 18l17 19v2080l-17 15c-10 8-216 129-458 268s-642 370-888 512-453 258-460 258-21-6-30-12zm-572-1540c-3-7-4-299-3-648l3-635 92-3 93-3 2 321 3 321 285-320 285-321h237l-34 38c-18 21-144 162-279 313s-259 290-276 309l-31 36 291 299 291 300-119 3-120 3-267-273-267-273-1 273v272h-181l-4-12z"/></g></g></svg>